<?xml version="1.0" encoding="UTF-8" standalone="yes"?>
<!DOCTYPE svg PUBLIC "-//W3C//DTD SVG 1.1//EN" "http://www.w3.org/Graphics/SVG/1.1/DTD/svg11.dtd">

<svg width="108" height="108" viewBox="0 0 108 108" xmlns="http://www.w3.org/2000/svg" xmlns:xlink="http://www.w3.org/1999/xlink" version="1.1" baseProfile="full">
    <g transform="scale(1,-1) translate(0,-108)">
        <path d="M 56.572900 4.065000 L 59.112200 4.258100 L 61.614500 4.576100 L 64.076700 5.015800 L 66.495700 5.574100 L 68.868400 6.247900 L 71.191600 7.033900 L 73.462200 7.929200 L 75.677000 8.930500 L 77.832900 10.034700 L 79.926800 11.238600 L 81.955400 12.539200 L 83.915700 13.933200 L 85.804600 15.417500 L 87.618800 16.989000 L 89.355300 18.644600 L 91.010900 20.381100 L 92.582400 22.195300 L 94.066700 24.084200 L 95.460700 26.044500 L 96.761300 28.073100 L 97.965200 30.167000 L 99.069400 32.322900 L 100.070700 34.537700 L 100.966000 36.808300 L 101.752000 39.131500 L 102.425800 41.504200 L 102.984100 43.923200 L 103.423800 46.385400 L 103.741800 48.887700 L 103.934900 51.427000 L 104.000000 54.000000 L 103.934900 56.572900 L 103.741800 59.112200 L 103.423800 61.614500 L 102.984100 64.076700 L 102.425800 66.495700 L 101.752000 68.868400 L 100.966000 71.191600 L 100.070700 73.462200 L 99.069400 75.677000 L 97.965200 77.832900 L 96.761300 79.926800 L 95.460700 81.955400 L 94.066700 83.915700 L 92.582400 85.804600 L 91.010900 87.618800 L 89.355300 89.355300 L 87.618800 91.010900 L 85.804600 92.582400 L 83.915700 94.066700 L 81.955400 95.460700 L 79.926800 96.761300 L 77.832900 97.965200 L 75.677000 99.069400 L 73.462200 100.070700 L 71.191600 100.966000 L 68.868400 101.752000 L 66.495700 102.425800 L 64.076700 102.984100 L 61.614500 103.423800 L 59.112200 103.741800 L 56.572900 103.934900 L 54.000000 104.000000 L 51.427000 103.934900 L 48.887700 103.741800 L 46.385400 103.423800 L 43.923200 102.984100 L 41.504200 102.425800 L 39.131500 101.752000 L 36.808300 100.966000 L 34.537700 100.070700 L 32.322900 99.069400 L 30.167000 97.965200 L 28.073100 96.761300 L 26.044500 95.460700 L 24.084200 94.066700 L 22.195300 92.582400 L 20.381100 91.010900 L 18.644600 89.355300 L 16.989000 87.618800 L 15.417500 85.804600 L 13.933200 83.915700 L 12.539200 81.955400 L 11.238600 79.926800 L 10.034700 77.832900 L 8.930500 75.677000 L 7.929200 73.462200 L 7.033900 71.191600 L 6.247900 68.868400 L 5.574100 66.495700 L 5.015800 64.076700 L 4.576100 61.614500 L 4.258100 59.112200 L 4.065000 56.572900 L 4.000000 54.000000 L 4.065000 51.427000 L 4.258100 48.887700 L 4.576100 46.385400 L 5.015800 43.923200 L 5.574100 41.504200 L 6.247900 39.131500 L 7.033900 36.808300 L 7.929200 34.537700 L 8.930500 32.322900 L 10.034700 30.167000 L 11.238600 28.073100 L 12.539200 26.044500 L 13.933200 24.084200 L 15.417500 22.195300 L 16.989000 20.381100 L 18.644600 18.644600 L 20.381100 16.989000 L 22.195300 15.417500 L 24.084200 13.933200 L 26.044500 12.539200 L 28.073100 11.238600 L 30.167000 10.034700 L 32.322900 8.930500 L 34.537700 7.929200 L 36.808300 7.033900 L 39.131500 6.247900 L 41.504200 5.574100 L 43.923200 5.015800 L 46.385400 4.576100 L 48.887700 4.258100 L 51.427000 4.065000 L 54.000000 4.000000 Z M 51.234700 21.465100 L 51.234700 86.534800 L 69.381600 86.534800 L 70.482000 86.524600 L 72.674800 86.443600 L 74.856700 86.281600 L 77.027900 86.038600 L 78.109400 85.886700 L 78.647100 85.798400 L 79.708400 85.578300 L 80.750800 85.300200 L 81.774200 84.963900 L 82.778800 84.569700 L 83.764400 84.117400 L 84.731200 83.607000 L 85.679100 83.038500 L 86.145900 82.732500 L 86.625100 82.392300 L 87.541800 81.679400 L 88.403300 80.923300 L 89.209400 80.123900 L 89.960100 79.281400 L 90.655400 78.395700 L 91.295400 77.466700 L 91.880100 76.494500 L 92.151700 75.992300 L 92.408000 75.481500 L 92.871200 74.441900 L 93.268100 73.377900 L 93.598900 72.289600 L 93.863600 71.177100 L 94.062000 70.040200 L 94.194400 68.879000 L 94.260500 67.693500 L 94.268800 67.091600 L 94.260500 66.489800 L 94.194400 65.304300 L 94.062000 64.143100 L 93.863600 63.006200 L 93.598900 61.893700 L 93.268100 60.805400 L 92.871200 59.741400 L 92.408000 58.701700 L 92.151700 58.191000 L 91.880100 57.688700 L 91.295400 56.716600 L 90.655400 55.787600 L 89.960100 54.901900 L 89.209400 54.059400 L 88.403300 53.260000 L 87.541800 52.503900 L 86.625100 51.791000 L 86.145900 51.450700 L 85.679100 51.144900 L 84.731200 50.577800 L 83.764400 50.070100 L 82.778800 49.621900 L 81.774200 49.233000 L 80.750800 48.903600 L 79.708400 48.633500 L 78.647100 48.422900 L 78.109400 48.339800 L 77.027900 48.198100 L 74.856700 47.971200 L 72.674800 47.820000 L 70.482000 47.744400 L 69.381600 47.734900 L 62.295700 47.734900 L 62.295700 53.524700 L 68.949500 53.524700 L 69.700900 53.527400 L 71.175400 53.549000 L 72.612000 53.592200 L 74.010800 53.657000 L 74.696100 53.697500 L 75.036500 53.723800 L 75.718300 53.804800 L 76.401600 53.923700 L 77.086100 54.080300 L 77.772000 54.274700 L 78.459300 54.507000 L 79.147900 54.777000 L 79.837900 55.084800 L 80.183300 55.253000 L 80.630400 55.474000 L 81.485100 55.946600 L 82.287100 56.459700 L 83.036500 57.013300 L 83.733200 57.607400 L 84.377300 58.242000 L 84.968700 58.917100 L 85.507400 59.632700 L 85.757000 60.005700 L 85.992500 60.387800 L 86.417800 61.176300 L 86.782400 61.997300 L 87.086200 62.850600 L 87.329200 63.736400 L 87.511500 64.654500 L 87.633000 65.605100 L 87.693700 66.588000 L 87.701300 67.091600 L 87.693700 67.605600 L 87.633000 68.606100 L 87.511500 69.570100 L 87.329200 70.497700 L 87.086200 71.388900 L 86.782400 72.243600 L 86.417800 73.061800 L 85.992500 73.843600 L 85.757000 74.220800 L 85.507400 74.588600 L 84.968700 75.294700 L 84.377300 75.961700 L 83.733200 76.589600 L 83.036500 77.178300 L 82.287100 77.727800 L 81.485100 78.238200 L 80.630400 78.709400 L 80.183300 78.930300 L 79.837900 79.108700 L 79.147900 79.434100 L 78.459300 79.717700 L 77.772000 79.959400 L 77.086100 80.159200 L 76.401600 80.317200 L 75.718300 80.433300 L 75.036500 80.507600 L 74.696100 80.529000 L 73.316100 80.585700 L 70.442900 80.650500 L 68.949500 80.658600 L 57.802200 80.658600 L 57.802200 21.465100 Z M 30.562400 21.556300 L 29.672600 21.594100 L 28.800400 21.669700 L 27.945700 21.783100 L 27.108500 21.934300 L 26.289000 22.123400 L 25.486900 22.350200 L 24.702500 22.614900 L 24.316800 22.761400 L 23.936400 22.916100 L 23.193800 23.246900 L 22.475400 23.606100 L 21.781400 23.993600 L 21.111700 24.409500 L 20.466300 24.853700 L 19.845200 25.326300 L 19.248400 25.827200 L 18.959100 26.088300 L 18.676400 26.356500 L 18.132300 26.914100 L 17.616500 27.500100 L 17.129100 28.114500 L 16.670000 28.757200 L 16.239300 29.428200 L 15.836900 30.127600 L 15.462900 30.855400 L 15.286600 31.229900 L 15.118500 31.610300 L 14.810600 32.385400 L 14.540600 33.179300 L 14.308300 33.992100 L 14.113900 34.823800 L 13.957300 35.674500 L 13.838400 36.544000 L 13.757400 37.432500 L 13.731100 37.883800 L 20.039300 37.883800 L 20.082700 37.307400 L 20.235300 36.196200 L 20.475600 35.140300 L 20.803700 34.139800 L 21.219600 33.194600 L 21.723200 32.304800 L 22.314600 31.470400 L 22.993800 30.691300 L 23.366200 30.322600 L 23.756000 29.972000 L 24.572800 29.338800 L 25.439700 28.796000 L 26.356500 28.343700 L 27.323200 27.981800 L 28.339900 27.710400 L 29.406600 27.529500 L 30.523200 27.439000 L 31.100300 27.427700 L 31.537400 27.432900 L 32.377300 27.474800 L 33.171200 27.558500 L 33.919200 27.684100 L 34.621300 27.851500 L 35.277500 28.060800 L 35.887800 28.311900 L 36.452200 28.604900 L 36.717200 28.767100 L 37.219500 29.114800 L 38.126800 29.887100 L 38.904500 30.762100 L 39.552600 31.739600 L 39.828100 32.266900 L 40.075800 32.815700 L 40.502500 33.966100 L 40.837400 35.186700 L 41.080400 36.477500 L 41.167500 37.149300 L 41.238400 37.831800 L 41.351800 39.209000 L 41.427400 40.602400 L 41.465200 42.012100 L 41.469900 42.722900 L 41.469900 80.572200 L 26.261100 80.572200 L 26.261100 86.448300 L 47.778200 86.448300 L 47.778200 42.982200 L 47.774800 42.223400 L 47.747800 40.689500 L 47.693800 39.134100 L 47.612800 37.557000 L 47.562100 36.760400 L 47.531200 36.362400 L 47.446200 35.576600 L 47.330100 34.804300 L 47.182900 34.045400 L 47.004600 33.300100 L 46.795400 32.568300 L 46.555000 31.850000 L 46.283600 31.145200 L 46.136300 30.797800 L 45.889500 30.254700 L 45.341400 29.215000 L 44.720300 28.237500 L 44.026200 27.322000 L 43.259300 26.468700 L 42.419500 25.677500 L 41.506700 24.948400 L 40.521100 24.281400 L 40.000900 23.971100 L 39.469600 23.678100 L 38.394800 23.148900 L 37.303900 22.695200 L 36.196700 22.317100 L 35.073300 22.014700 L 33.933700 21.787800 L 32.777900 21.636600 L 31.605900 21.561000 L 31.013900 21.551600 Z" transform="scale(1.000000,1.000000) translate(0.000000,0.000000)" fill="#000000" opacity="1.000000"></path>
    </g>
</svg>